<?xml version="1.0" encoding="iso-8859-1"?>
<!-- Uploaded to: SVG Repo, www.svgrepo.com, Generator: SVG Repo Mixer Tools -->
<svg height="800px" width="800px" version="1.1" id="Layer_1" xmlns="http://www.w3.org/2000/svg" xmlns:xlink="http://www.w3.org/1999/xlink" 
	 viewBox="0 0 512 512" xml:space="preserve">
<path style="fill:#CDD4D9;" d="M456.348,233.739H55.652c-9.217,0-16.696-7.473-16.696-16.696s7.479-16.696,16.696-16.696h400.696
	c9.217,0,16.696,7.473,16.696,16.696S465.565,233.739,456.348,233.739z"/>
<path style="fill:#BDC6CC;" d="M456.348,200.348H256v33.391h200.348c9.217,0,16.696-7.473,16.696-16.696
	S465.565,200.348,456.348,200.348z"/>
<path style="fill:#736056;" d="M139.13,200.348v50.087c0,64.441,52.424,116.87,116.87,116.87s116.87-52.429,116.87-116.87v-50.087
	H139.13z"/>
<path style="fill:#665247;" d="M256,367.304c64.445,0,116.87-52.429,116.87-116.87v-50.087H256V367.304z"/>
<path style="fill:#EDF0F2;" d="M256,0c-64.445,0-116.87,52.429-116.87,116.87v116.87H372.87V116.87C372.87,52.429,320.445,0,256,0z"
	/>
<path style="fill:#DAE1E6;" d="M372.87,233.739V116.87C372.87,52.429,320.445,0,256,0v233.739H372.87z"/>
<path style="fill:#CDD4D9;" d="M256,512c-9.217,0-16.696-7.473-16.696-16.696v-77.913c0-9.223,7.479-16.696,16.696-16.696
	s16.696,7.473,16.696,16.696v77.913C272.696,504.527,265.217,512,256,512z"/>
<path style="fill:#BDC6CC;" d="M272.696,495.304v-77.913c0-9.223-7.479-16.696-16.696-16.696V512
	C265.217,512,272.696,504.527,272.696,495.304z"/>
<path style="fill:#FFC033;" d="M256,434.087c-101.261,0-183.652-82.386-183.652-183.652v-66.783c0-9.223,7.479-16.696,16.696-16.696
	s16.696,7.473,16.696,16.696v66.783c0,82.853,67.403,150.261,150.261,150.261s150.261-67.408,150.261-150.261v-66.783
	c0-9.223,7.479-16.696,16.696-16.696c9.217,0,16.696,7.473,16.696,16.696v66.783C439.652,351.701,357.261,434.087,256,434.087z"/>
<path style="fill:#F9A926;" d="M439.652,250.435v-66.783c0-9.223-7.479-16.696-16.696-16.696c-9.217,0-16.696,7.473-16.696,16.696
	v66.783c0,82.853-67.403,150.261-150.261,150.261v33.391C357.261,434.087,439.652,351.701,439.652,250.435z"/>
<circle style="fill:#736056;" cx="222.609" cy="150.261" r="16.696"/>
<circle style="fill:#665247;" cx="289.391" cy="150.261" r="16.696"/>
<path style="fill:#736056;" d="M322.783,512H189.217c-9.217,0-16.696-7.473-16.696-16.696s7.479-16.696,16.696-16.696h133.565
	c9.217,0,16.696,7.473,16.696,16.696S332,512,322.783,512z"/>
<path style="fill:#665247;" d="M322.783,478.609H256V512h66.783c9.217,0,16.696-7.473,16.696-16.696S332,478.609,322.783,478.609z"
	/>
<circle style="fill:#736056;" cx="256" cy="83.478" r="16.696"/>
<path style="fill:#665247;" d="M272.696,83.478c0-9.22-7.475-16.696-16.696-16.696v33.391
	C265.22,100.174,272.696,92.699,272.696,83.478z"/>
</svg>